<svg xmlns="http://www.w3.org/2000/svg" viewBox="0 0 512 512" style="height: 512px; width: 512px;"><g class="" transform="translate(0,0)" style=""><g><path d="M19.188 16.406L19.188 123.28L172.781 205.03L102.126 16.406L19.187 16.406Z" class="" fill="#d0021b" fill-opacity="1"></path><path d="M129 16.406L248.125 161.22L253.375 16.406L129 16.406Z" class="" fill="#d0021b" fill-opacity="1"></path><path d="M294.25 16.406L335.156 149.562L395.876 16.406L294.25 16.406Z" class="" fill="#d0021b" fill-opacity="1"></path><path d="M434.438 16.406L419.844 172.344L494.594 102.844L494.594 16.406L434.438 16.406Z" class="" fill="#d0021b" fill-opacity="1"></path><path d="M19.188 167.062L19.188 264.594L119.062 274.531L19.19 167.064Z" class="" fill="#d0021b" fill-opacity="1"></path><path d="M428.594 207.375C410.71 207.281 389.741 216.445 372.656 233.531C367.351 238.838 362.83 244.529 359.094 250.376C265.357 193.9 29.158 326.709 180.094 440.156L60.78 440.156L34.312 487.876L291.5 487.876L203 384.625C227.27 357.917 270.458 340.921 300 339.562C313.793 384.66 336.265 453.059 371.75 487.875L432.594 487.875C389.524 441.328 356.056 378.785 350.656 308.031C352.272 311.268 354.376 314.221 356.969 316.814C375.631 335.477 412.913 328.462 440.249 301.126C467.585 273.79 474.599 236.508 455.937 217.846C448.937 210.846 439.323 207.433 428.593 207.376Z" class="" fill="#ffffff" fill-opacity="1"></path><path d="M19.188 323L19.188 382.563L96.875 358.625L19.187 323Z" class="selected" fill="#d0021b" fill-opacity="1"></path></g></g></svg>