<svg xmlns="http://www.w3.org/2000/svg" viewBox="0 0 512 512" style="height: 512px; width: 512px;"><g class="" transform="translate(0,0)" style=""><g><path d="M160 36.5C148.312 36.5 137 43.174 137 62L137 87L160 87L160 105L137 105L137 119L144 119L144 137L137 137L137 151L160 151L160 169L137 169L137 183L144 183L144 201L137 201L137 215L160 215L160 233L137 233L137 247L144 247L144 265L137 265L137 279L160 279L160 297L137 297L137 311L144 311L144 329L137 329L137 343L151 343L151 320L169 320L169 401.313C182.626 405.306 191.991 417.801 192 432C192 449.673 177.673 464 160 464C142.327 464 128 449.673 128 432C128.009 417.801 137.374 405.306 151 401.312L151 361L137 361L137 382L137.01 382C118.084 390.673 105 409.74 105 432C105 462.482 129.518 487 160 487C190.482 487 215 462.482 215 432C215 409.74 201.916 390.673 182.99 382L183 382L183 62C183 43.174 171.687 36.5 160 36.5Z" class="" fill="#d0021b" fill-opacity="1"></path><path d="M247 52.773L247 119.503L201 96.503L201 116.627L247 139.627L247 189.873L233.46 216.957L203.232 215.143L201 213.853L201 240.979L210.918 255.999L201 271.02L201 298.146L203.232 296.856L233.459 295.043L247 322.127L247 372.373L217.49 387.127C221.193 391.857 224.324 397.049 226.783 402.605L247 392.498L247 459.228L265 459.228L265 392.498L333.266 426.631L341.316 410.531L265 372.374L265 322.128L278.54 295.044L308.768 296.858L352.281 321.981L347.171 407.153L365.141 408.231L369.711 332.044L427.501 365.409L436.501 349.821L378.711 316.456L442.405 274.403L432.487 259.383L361.282 306.393L317.768 281.269L301.082 256L317.766 230.732L361.281 205.607L432.487 252.619L442.405 237.597L378.712 195.544L436.502 162.179L427.502 146.591L369.712 179.956L365.142 103.769L347.172 104.847L352.282 190.019L308.77 215.142L278.543 216.956L265 189.873L265 139.627L341.316 101.469L333.266 85.369L265 119.5L265 52.77L247 52.77Z" class="" fill="#ffffff" fill-opacity="1"></path><path d="M84.5 146.593L75.5 162.18L119 187.295L119 166.512L84.5 146.592Z" class="" fill="#ffffff" fill-opacity="1"></path><path d="M119 204.979L69.596 237.597L79.514 252.617L119 226.55L119 204.98Z" class="" fill="#ffffff" fill-opacity="1"></path><path d="M79.514 259.379L69.596 274.401L119 307.022L119 285.452L79.514 259.382Z" class="selected" fill="#ffffff" fill-opacity="1"></path><path d="M119 324.706L75.5 349.82L84.5 365.408L119 345.488L119 324.705Z" class="" fill="#ffffff" fill-opacity="1"></path><path d="M162.11 408.649C136.924 408.649 136.924 435.327 136.924 435.327C136.924 435.327 143.974 424.927 148.234 420.423C152.429 415.988 162.111 408.649 162.111 408.649Z" class="" fill="#d0021b" fill-opacity="1"></path></g></g></svg>