<svg xmlns="http://www.w3.org/2000/svg" viewBox="0 0 512 512" style="height: 512px; width: 512px;"><defs><radialGradient id="sbed-targeted-gradient-1"><stop offset="0%" stop-color="#ff0000" stop-opacity="1"></stop><stop offset="100%" stop-color="#eded49" stop-opacity="1"></stop></radialGradient></defs><circle cx="256" cy="256" r="256" fill="#000" fill-opacity="1"></circle><g class="" transform="translate(0,0)" style=""><path d="M256 16C123.45 16 16 123.45 16 256s107.45 240 240 240 240-107.45 240-240S388.55 16 256 16zm0 60c99.41 0 180 80.59 180 180s-80.59 180-180 180S76 355.41 76 256 156.59 76 256 76zm-15 30a15 15 0 0 0-15 15v30a15 15 0 0 0 15 15h30a15 15 0 0 0 15-15v-30a15 15 0 0 0-15-15h-30zm16.75 90.03A60 60 0 0 0 196 256a60 60 0 0 0 120 0 60 60 0 0 0-58.25-59.97zM121 226a15 15 0 0 0-15 15v30a15 15 0 0 0 15 15h30a15 15 0 0 0 15-15v-30a15 15 0 0 0-15-15h-30zm240 0a15 15 0 0 0-15 15v30a15 15 0 0 0 15 15h30a15 15 0 0 0 15-15v-30a15 15 0 0 0-15-15h-30zM241 346a15 15 0 0 0-15 15v30a15 15 0 0 0 15 15h30a15 15 0 0 0 15-15v-30a15 15 0 0 0-15-15h-30z" fill="url(#sbed-targeted-gradient-1)"></path></g><g font-family="Arial, Helvetica, sans-serif" font-size="91" font-style="normal" font-weight="bold" text-anchor="middle" text-decoration=" rgba(255, 255, 255, 1)" class="" transform="translate(265,473)" style=""><g><text stroke="rgba(0, 0, 0, 1)" stroke-width="22.75"><tspan x="0" y="0">overwatch</tspan></text><text fill="rgba(255, 255, 255, 1)"><tspan x="0" y="0">overwatch</tspan></text></g></g></svg>