<svg xmlns="http://www.w3.org/2000/svg" viewBox="0 0 512 512" style="height: 512px; width: 512px;"><defs><filter id="shadow-1" height="300%" width="300%" x="-100%" y="-100%"><feFlood flood-color="rgba(210, 27, 27, 1)" result="flood"></feFlood><feComposite in="flood" in2="SourceGraphic" operator="atop" result="composite"></feComposite><feGaussianBlur in="composite" stdDeviation="15" result="blur"></feGaussianBlur><feOffset dx="0" dy="0" result="offset"></feOffset><feComposite in="SourceGraphic" in2="offset" operator="over"></feComposite></filter><linearGradient x1="0" x2="1" y1="0" y2="1" id="lorc-radioactive-gradient-0"><stop offset="0%" stop-color="#40ff00" stop-opacity="1"></stop><stop offset="100%" stop-color="#fff000" stop-opacity="1"></stop></linearGradient></defs><path d="M0 0h512v512H0z" fill="url(#lorc-radioactive-gradient-0)"></path><g class="" transform="translate(0,0)" style=""><path d="M253.78 17.188c-130.728 0-236.905 106.177-236.905 236.906C16.875 384.824 123.052 491 253.78 491c130.73 0 236.907-106.18 236.907-236.906 0-130.73-106.177-236.906-236.906-236.906zm0 18.687c120.63 0 218.22 97.59 218.22 218.22 0 120.626-97.59 218.218-218.22 218.218-120.628 0-218.218-97.59-218.218-218.22s97.59-218.218 218.22-218.218zm101.19 46.313L278.56 215.063c15.916 9.635 25.177 26.33 26.125 43.78h148.407c1.644-70.01-33.49-138.867-98.125-176.656zm-205.126 2.468c-27.1 16.725-50.68 40.147-67.72 69.656-19.01 32.928-26.926 69.12-26 104.532H196c.41-8.353 2.737-16.73 7.188-24.438 5.21-9.024 12.64-16 21.218-20.625L149.844 84.657zm100.594 141.156c-.864-.002-1.736.035-2.594.094-11.446.793-22.288 7.084-28.5 17.844-9.94 17.216-4.09 38.967 13.125 48.906 17.213 9.94 38.935 4.12 48.874-13.094 9.94-17.215 4.12-38.967-13.094-48.906-5.648-3.26-11.768-4.824-17.813-4.844zm28.218 82.375c-16.127 9.75-36.864 10.846-54.406 1.25l-68.03 117.22c29.454 16.785 61.044 25.177 92.75 26 34.567.898 68.72-7.786 99.124-24.032l-69.438-120.438z" fill="#fff" fill-opacity="1" stroke="#ccc" stroke-opacity="1" stroke-width="8" filter="url(#shadow-1)"></path></g><g font-family="Arial, Helvetica, sans-serif" font-size="101" font-style="normal" font-weight="bold" text-anchor="middle" text-decoration=" rgba(255, 255, 255, 1)" class="" transform="translate(258,96)" style=""><g><text stroke="rgba(0, 0, 0, 1)" stroke-width="25.25"><tspan x="0" y="0">Radiation</tspan></text><text fill="rgba(255, 255, 255, 1)"><tspan x="0" y="0">Radiation</tspan></text></g></g></svg>